<?xml version="1.0" encoding="UTF-8" standalone="no"?><svg xmlns="http://www.w3.org/2000/svg" xmlns:xlink="http://www.w3.org/1999/xlink" contentStyleType="text/css" height="896px" preserveAspectRatio="none" style="width:1434px;height:896px;background:#FFFFFF;" version="1.1" viewBox="0 0 1434 896" width="1434px" zoomAndPan="magnify"><defs/><g><!--MD5=[7fdce667dd5c2bfd6fafd3e45c05fe82]
class BaseObject--><g id="elem_BaseObject"><rect codeLine="3" fill="#F1F1F1" height="312.1406" id="BaseObject" rx="2.5" ry="2.5" style="stroke:#181818;stroke-width:0.5;" width="330" x="830.5" y="7"/><ellipse cx="954.75" cy="23" fill="#A9DCDF" rx="11" ry="11" style="stroke:#181818;stroke-width:1.0;"/><path d="M956.9375,24.7656 L952.7969,24.7656 L952.375,25.7969 L952.7969,25.7969 Q953.4063,25.7969 953.6719,26.0313 Q953.9375,26.2656 953.9375,26.6563 Q953.9375,27.0313 953.6719,27.2656 Q953.4063,27.5 952.7969,27.5 L950.5,27.5 Q949.8906,27.5 949.6328,27.2656 Q949.375,27.0313 949.375,26.6406 Q949.375,26.2656 949.6484,26.0234 Q949.9219,25.7813 950.5469,25.7969 L953.2188,19.1406 L952.1094,19.1406 Q951.5,19.1406 951.2344,18.9063 Q950.9688,18.6719 950.9688,18.2813 Q950.9688,17.9063 951.2344,17.6719 Q951.5,17.4375 952.1094,17.4375 L955.7813,17.4375 L959.1719,25.7969 Q959.7656,25.7969 959.9531,25.9375 Q960.3438,26.2031 960.3438,26.6563 Q960.3438,27.0313 960.0859,27.2656 Q959.8281,27.5 959.2188,27.5 L956.9219,27.5 Q956.3125,27.5 956.0469,27.2656 Q955.7813,27.0313 955.7813,26.6406 Q955.7813,26.2656 956.0469,26.0313 Q956.3125,25.7969 956.9219,25.7969 L957.3438,25.7969 L956.9375,24.7656 Z M956.2188,23.0625 L954.8594,19.6875 L953.4844,23.0625 L956.2188,23.0625 Z " fill="#000000"/><text fill="#000000" font-family="sans-serif" font-size="14" font-style="italic" lengthAdjust="spacing" textLength="73" x="975.25" y="28.7285">BaseObject</text><line style="stroke:#181818;stroke-width:0.5;" x1="831.5" x2="1159.5" y1="39" y2="39"/><text fill="#000000" font-family="sans-serif" font-size="14" lengthAdjust="spacing" textLength="164" x="836.5" y="57.5332">+parent: ComplexInstance</text><text fill="#000000" font-family="sans-serif" font-size="14" lengthAdjust="spacing" textLength="66" x="836.5" y="75.1426">+_id: UUID</text><text fill="#000000" font-family="sans-serif" font-size="14" lengthAdjust="spacing" textLength="171" x="836.5" y="92.752">+_name: String «transient»</text><text fill="#000000" font-family="sans-serif" font-size="14" lengthAdjust="spacing" textLength="135" x="836.5" y="110.3613">+_hash_name: String</text><text fill="#000000" font-family="sans-serif" font-size="14" lengthAdjust="spacing" textLength="175" x="836.5" y="127.9707">+attribute_dict: AttributeDict</text><line style="stroke:#181818;stroke-width:1.0;" x1="831.5" x2="1159.5" y1="135.0469" y2="135.0469"/><text fill="#000000" font-family="sans-serif" font-size="14" lengthAdjust="spacing" textLength="249" x="836.5" y="153.5801">+id: UUID «virtual, persistent, readonly»</text><text fill="#000000" font-family="sans-serif" font-size="14" lengthAdjust="spacing" textLength="202" x="836.5" y="171.1895">+name: String «virtual, writable»</text><text fill="#000000" font-family="sans-serif" font-size="14" lengthAdjust="spacing" textLength="318" x="836.5" y="188.7988">+hash_name: String «virtual, persistent, readonly»</text><text fill="#000000" font-family="sans-serif" font-size="14" lengthAdjust="spacing" textLength="266" x="836.5" y="206.4082">+created_at: DateTime «virtual, readonly»</text><text fill="#000000" font-family="sans-serif" font-size="14" lengthAdjust="spacing" textLength="270" x="836.5" y="224.0176">+updated_at: DateTime «virtual, readonly»</text><text fill="#000000" font-family="sans-serif" font-size="14" lengthAdjust="spacing" textLength="202" x="836.5" y="241.627">+path: String «virtual, readonly»</text><text fill="#000000" font-family="sans-serif" font-size="14" lengthAdjust="spacing" textLength="194" x="836.5" y="259.2363">+set_name(name: String): void</text><text fill="#000000" font-family="sans-serif" font-size="14" lengthAdjust="spacing" textLength="187" x="836.5" y="276.8457">+_refresh_hash_name(): void</text><text fill="#000000" font-family="sans-serif" font-size="14" lengthAdjust="spacing" textLength="137" x="836.5" y="294.4551">+get(key: String): Any</text><text fill="#000000" font-family="sans-serif" font-size="14" lengthAdjust="spacing" textLength="212" x="836.5" y="312.0645">+set(key: String, value: Any): void</text></g><!--MD5=[fe69da8b2eb1efcab96dc125e3c435cf]
class LocatableInstance--><g id="elem_LocatableInstance"><rect codeLine="22" fill="#F1F1F1" height="136.0469" id="LocatableInstance" rx="2.5" ry="2.5" style="stroke:#181818;stroke-width:0.5;" width="237" x="700" y="388"/><ellipse cx="756.25" cy="404" fill="#A9DCDF" rx="11" ry="11" style="stroke:#181818;stroke-width:1.0;"/><path d="M758.4375,405.7656 L754.2969,405.7656 L753.875,406.7969 L754.2969,406.7969 Q754.9063,406.7969 755.1719,407.0313 Q755.4375,407.2656 755.4375,407.6563 Q755.4375,408.0313 755.1719,408.2656 Q754.9063,408.5 754.2969,408.5 L752,408.5 Q751.3906,408.5 751.1328,408.2656 Q750.875,408.0313 750.875,407.6406 Q750.875,407.2656 751.1484,407.0234 Q751.4219,406.7813 752.0469,406.7969 L754.7188,400.1406 L753.6094,400.1406 Q753,400.1406 752.7344,399.9063 Q752.4688,399.6719 752.4688,399.2813 Q752.4688,398.9063 752.7344,398.6719 Q753,398.4375 753.6094,398.4375 L757.2813,398.4375 L760.6719,406.7969 Q761.2656,406.7969 761.4531,406.9375 Q761.8438,407.2031 761.8438,407.6563 Q761.8438,408.0313 761.5859,408.2656 Q761.3281,408.5 760.7188,408.5 L758.4219,408.5 Q757.8125,408.5 757.5469,408.2656 Q757.2813,408.0313 757.2813,407.6406 Q757.2813,407.2656 757.5469,407.0313 Q757.8125,406.7969 758.4219,406.7969 L758.8438,406.7969 L758.4375,405.7656 Z M757.7188,404.0625 L756.3594,400.6875 L754.9844,404.0625 L757.7188,404.0625 Z " fill="#000000"/><text fill="#000000" font-family="sans-serif" font-size="14" font-style="italic" lengthAdjust="spacing" textLength="116" x="776.75" y="409.7285">LocatableInstance</text><line style="stroke:#181818;stroke-width:0.5;" x1="701" x2="936" y1="420" y2="420"/><text fill="#000000" font-family="sans-serif" font-size="14" lengthAdjust="spacing" textLength="115" x="706" y="438.5332">+position: Point2D</text><text fill="#000000" font-family="sans-serif" font-size="14" lengthAdjust="spacing" textLength="84" x="706" y="456.1426">+size: Size2D</text><line style="stroke:#181818;stroke-width:1.0;" x1="701" x2="936" y1="463.2188" y2="463.2188"/><text fill="#000000" font-family="sans-serif" font-size="14" lengthAdjust="spacing" textLength="163" x="706" y="481.752">+x: float «virtual, writable»</text><text fill="#000000" font-family="sans-serif" font-size="14" lengthAdjust="spacing" textLength="164" x="706" y="499.3613">+y: float «virtual, writable»</text><text fill="#000000" font-family="sans-serif" font-size="14" lengthAdjust="spacing" textLength="225" x="706" y="516.9707">+set_xy(pos: Point2DOrTuple): void</text></g><!--MD5=[27db894e6bf6c4214713b5fdc3a23462]
class ElementaryInstance--><g id="elem_ElementaryInstance"><rect codeLine="31" fill="#F1F1F1" height="100.8281" id="ElementaryInstance" rx="2.5" ry="2.5" style="stroke:#181818;stroke-width:0.5;" width="156" x="617.5" y="610.5"/><ellipse cx="632.5" cy="626.5" fill="#ADD1B2" rx="11" ry="11" style="stroke:#181818;stroke-width:1.0;"/><path d="M635.2656,622.375 Q635.4219,622.1563 635.6094,622.0469 Q635.7969,621.9375 636.0156,621.9375 Q636.3906,621.9375 636.625,622.1953 Q636.8594,622.4531 636.8594,623.0625 L636.8594,624.5156 Q636.8594,625.125 636.625,625.3906 Q636.3906,625.6563 636.0156,625.6563 Q635.6719,625.6563 635.4688,625.4531 Q635.2656,625.2656 635.1563,624.75 Q635.1094,624.3906 634.9219,624.2031 Q634.5938,623.8281 633.9844,623.6094 Q633.375,623.3906 632.75,623.3906 Q631.9844,623.3906 631.3516,623.7188 Q630.7188,624.0469 630.2266,624.7969 Q629.7344,625.5469 629.7344,626.5781 L629.7344,627.6719 Q629.7344,628.9063 630.625,629.7266 Q631.5156,630.5469 633.1094,630.5469 Q634.0469,630.5469 634.7031,630.2969 Q635.0938,630.1406 635.5156,629.7031 Q635.7813,629.4375 635.9297,629.3594 Q636.0781,629.2813 636.2813,629.2813 Q636.6094,629.2813 636.8672,629.5391 Q637.125,629.7969 637.125,630.1406 Q637.125,630.4844 636.7813,630.8906 Q636.2813,631.4688 635.4844,631.7969 Q634.4063,632.25 633.1094,632.25 Q631.5938,632.25 630.3906,631.625 Q629.4063,631.125 628.7188,630.0547 Q628.0313,628.9844 628.0313,627.7031 L628.0313,626.5469 Q628.0313,625.2188 628.6484,624.0703 Q629.2656,622.9219 630.3594,622.3047 Q631.4531,621.6875 632.6875,621.6875 Q633.4219,621.6875 634.0703,621.8516 Q634.7188,622.0156 635.2656,622.375 Z " fill="#000000"/><text fill="#000000" font-family="sans-serif" font-size="14" lengthAdjust="spacing" textLength="124" x="646.5" y="632.2285">ElementaryInstance</text><line style="stroke:#181818;stroke-width:0.5;" x1="618.5" x2="772.5" y1="642.5" y2="642.5"/><text fill="#000000" font-family="sans-serif" font-size="14" lengthAdjust="spacing" textLength="110" x="623.5" y="661.0332">+type_key: String</text><text fill="#000000" font-family="sans-serif" font-size="14" lengthAdjust="spacing" textLength="103" x="623.5" y="678.6426">+in_pins: PinList</text><text fill="#000000" font-family="sans-serif" font-size="14" lengthAdjust="spacing" textLength="112" x="623.5" y="696.252">+out_pins: PinList</text><line style="stroke:#181818;stroke-width:0.5;" x1="618.5" x2="772.5" y1="703.3281" y2="703.3281"/></g><!--MD5=[1e667c6ad6db7468aaf1f24fbbf1ec5d]
class Variable--><g id="elem_Variable"><rect codeLine="37" fill="#F1F1F1" height="83.2188" id="Variable" rx="2.5" ry="2.5" style="stroke:#181818;stroke-width:0.5;" width="88" x="466.5" y="798"/><ellipse cx="483.3" cy="814" fill="#ADD1B2" rx="11" ry="11" style="stroke:#181818;stroke-width:1.0;"/><path d="M486.0656,809.875 Q486.2219,809.6563 486.4094,809.5469 Q486.5969,809.4375 486.8156,809.4375 Q487.1906,809.4375 487.425,809.6953 Q487.6594,809.9531 487.6594,810.5625 L487.6594,812.0156 Q487.6594,812.625 487.425,812.8906 Q487.1906,813.1563 486.8156,813.1563 Q486.4719,813.1563 486.2688,812.9531 Q486.0656,812.7656 485.9563,812.25 Q485.9094,811.8906 485.7219,811.7031 Q485.3938,811.3281 484.7844,811.1094 Q484.175,810.8906 483.55,810.8906 Q482.7844,810.8906 482.1516,811.2188 Q481.5188,811.5469 481.0266,812.2969 Q480.5344,813.0469 480.5344,814.0781 L480.5344,815.1719 Q480.5344,816.4063 481.425,817.2266 Q482.3156,818.0469 483.9094,818.0469 Q484.8469,818.0469 485.5031,817.7969 Q485.8938,817.6406 486.3156,817.2031 Q486.5813,816.9375 486.7297,816.8594 Q486.8781,816.7813 487.0813,816.7813 Q487.4094,816.7813 487.6672,817.0391 Q487.925,817.2969 487.925,817.6406 Q487.925,817.9844 487.5813,818.3906 Q487.0813,818.9688 486.2844,819.2969 Q485.2063,819.75 483.9094,819.75 Q482.3938,819.75 481.1906,819.125 Q480.2063,818.625 479.5188,817.5547 Q478.8313,816.4844 478.8313,815.2031 L478.8313,814.0469 Q478.8313,812.7188 479.4484,811.5703 Q480.0656,810.4219 481.1594,809.8047 Q482.2531,809.1875 483.4875,809.1875 Q484.2219,809.1875 484.8703,809.3516 Q485.5188,809.5156 486.0656,809.875 Z " fill="#000000"/><text fill="#000000" font-family="sans-serif" font-size="14" lengthAdjust="spacing" textLength="52" x="497.7" y="819.7285">Variable</text><line style="stroke:#181818;stroke-width:0.5;" x1="467.5" x2="553.5" y1="830" y2="830"/><text fill="#000000" font-family="sans-serif" font-size="14" lengthAdjust="spacing" textLength="74" x="472.5" y="848.5332">+value: Any</text><text fill="#000000" font-family="sans-serif" font-size="14" lengthAdjust="spacing" textLength="76" x="472.5" y="866.1426">+unit: String</text><line style="stroke:#181818;stroke-width:0.5;" x1="467.5" x2="553.5" y1="873.2188" y2="873.2188"/></g><!--MD5=[9224c56a07d9ab2bd826e8cba6890862]
class BasicOperator--><g id="elem_BasicOperator"><rect codeLine="42" fill="#F1F1F1" height="65.6094" id="BasicOperator" rx="2.5" ry="2.5" style="stroke:#181818;stroke-width:0.5;" width="211" x="590" y="806.5"/><ellipse cx="645.75" cy="822.5" fill="#ADD1B2" rx="11" ry="11" style="stroke:#181818;stroke-width:1.0;"/><path d="M648.5156,818.375 Q648.6719,818.1563 648.8594,818.0469 Q649.0469,817.9375 649.2656,817.9375 Q649.6406,817.9375 649.875,818.1953 Q650.1094,818.4531 650.1094,819.0625 L650.1094,820.5156 Q650.1094,821.125 649.875,821.3906 Q649.6406,821.6563 649.2656,821.6563 Q648.9219,821.6563 648.7188,821.4531 Q648.5156,821.2656 648.4063,820.75 Q648.3594,820.3906 648.1719,820.2031 Q647.8438,819.8281 647.2344,819.6094 Q646.625,819.3906 646,819.3906 Q645.2344,819.3906 644.6016,819.7188 Q643.9688,820.0469 643.4766,820.7969 Q642.9844,821.5469 642.9844,822.5781 L642.9844,823.6719 Q642.9844,824.9063 643.875,825.7266 Q644.7656,826.5469 646.3594,826.5469 Q647.2969,826.5469 647.9531,826.2969 Q648.3438,826.1406 648.7656,825.7031 Q649.0313,825.4375 649.1797,825.3594 Q649.3281,825.2813 649.5313,825.2813 Q649.8594,825.2813 650.1172,825.5391 Q650.375,825.7969 650.375,826.1406 Q650.375,826.4844 650.0313,826.8906 Q649.5313,827.4688 648.7344,827.7969 Q647.6563,828.25 646.3594,828.25 Q644.8438,828.25 643.6406,827.625 Q642.6563,827.125 641.9688,826.0547 Q641.2813,824.9844 641.2813,823.7031 L641.2813,822.5469 Q641.2813,821.2188 641.8984,820.0703 Q642.5156,818.9219 643.6094,818.3047 Q644.7031,817.6875 645.9375,817.6875 Q646.6719,817.6875 647.3203,817.8516 Q647.9688,818.0156 648.5156,818.375 Z " fill="#000000"/><text fill="#000000" font-family="sans-serif" font-size="14" lengthAdjust="spacing" textLength="91" x="666.25" y="828.2285">BasicOperator</text><line style="stroke:#181818;stroke-width:0.5;" x1="591" x2="800" y1="838.5" y2="838.5"/><text fill="#000000" font-family="sans-serif" font-size="14" lengthAdjust="spacing" textLength="199" x="596" y="857.0332">+operation: BasicOperatorType</text><line style="stroke:#181818;stroke-width:0.5;" x1="591" x2="800" y1="864.1094" y2="864.1094"/></g><!--MD5=[b48712fa67093e64131f3abe0931af25]
class ComplexInstance--><g id="elem_ComplexInstance"><rect codeLine="46" fill="#F1F1F1" height="136.0469" id="ComplexInstance" rx="2.5" ry="2.5" style="stroke:#181818;stroke-width:0.5;" width="278" x="1048.5" y="593"/><ellipse cx="1129.75" cy="609" fill="#ADD1B2" rx="11" ry="11" style="stroke:#181818;stroke-width:1.0;"/><path d="M1132.5156,604.875 Q1132.6719,604.6563 1132.8594,604.5469 Q1133.0469,604.4375 1133.2656,604.4375 Q1133.6406,604.4375 1133.875,604.6953 Q1134.1094,604.9531 1134.1094,605.5625 L1134.1094,607.0156 Q1134.1094,607.625 1133.875,607.8906 Q1133.6406,608.1563 1133.2656,608.1563 Q1132.9219,608.1563 1132.7188,607.9531 Q1132.5156,607.7656 1132.4063,607.25 Q1132.3594,606.8906 1132.1719,606.7031 Q1131.8438,606.3281 1131.2344,606.1094 Q1130.625,605.8906 1130,605.8906 Q1129.2344,605.8906 1128.6016,606.2188 Q1127.9688,606.5469 1127.4766,607.2969 Q1126.9844,608.0469 1126.9844,609.0781 L1126.9844,610.1719 Q1126.9844,611.4063 1127.875,612.2266 Q1128.7656,613.0469 1130.3594,613.0469 Q1131.2969,613.0469 1131.9531,612.7969 Q1132.3438,612.6406 1132.7656,612.2031 Q1133.0313,611.9375 1133.1797,611.8594 Q1133.3281,611.7813 1133.5313,611.7813 Q1133.8594,611.7813 1134.1172,612.0391 Q1134.375,612.2969 1134.375,612.6406 Q1134.375,612.9844 1134.0313,613.3906 Q1133.5313,613.9688 1132.7344,614.2969 Q1131.6563,614.75 1130.3594,614.75 Q1128.8438,614.75 1127.6406,614.125 Q1126.6563,613.625 1125.9688,612.5547 Q1125.2813,611.4844 1125.2813,610.2031 L1125.2813,609.0469 Q1125.2813,607.7188 1125.8984,606.5703 Q1126.5156,605.4219 1127.6094,604.8047 Q1128.7031,604.1875 1129.9375,604.1875 Q1130.6719,604.1875 1131.3203,604.3516 Q1131.9688,604.5156 1132.5156,604.875 Z " fill="#000000"/><text fill="#000000" font-family="sans-serif" font-size="14" lengthAdjust="spacing" textLength="107" x="1150.25" y="614.7285">ComplexInstance</text><line style="stroke:#181818;stroke-width:0.5;" x1="1049.5" x2="1325.5" y1="625" y2="625"/><text fill="#000000" font-family="sans-serif" font-size="14" lengthAdjust="spacing" textLength="161" x="1054.5" y="643.5332">+children: BaseObjectList</text><text fill="#000000" font-family="sans-serif" font-size="14" lengthAdjust="spacing" textLength="266" x="1054.5" y="661.1426">+children_by_hash_name: HashNameMap</text><line style="stroke:#181818;stroke-width:1.0;" x1="1049.5" x2="1325.5" y1="668.2188" y2="668.2188"/><text fill="#000000" font-family="sans-serif" font-size="14" lengthAdjust="spacing" textLength="187" x="1054.5" y="686.752">+paste(obj: BaseObject): void</text><text fill="#000000" font-family="sans-serif" font-size="14" lengthAdjust="spacing" textLength="121" x="1054.5" y="704.3613">+del(id: UUID): void</text><text fill="#000000" font-family="sans-serif" font-size="14" lengthAdjust="spacing" textLength="218" x="1054.5" y="721.9707">+get_child(ref: String): BaseObject</text></g><!--MD5=[2e807730047ae2e9fc9e944cb69597f3]
class Connector--><g id="elem_Connector"><rect codeLine="55" fill="#F1F1F1" height="153.6563" id="Connector" rx="2.5" ry="2.5" style="stroke:#181818;stroke-width:0.5;" width="184" x="480.5" y="379"/><ellipse cx="535.25" cy="395" fill="#ADD1B2" rx="11" ry="11" style="stroke:#181818;stroke-width:1.0;"/><path d="M538.0156,390.875 Q538.1719,390.6563 538.3594,390.5469 Q538.5469,390.4375 538.7656,390.4375 Q539.1406,390.4375 539.375,390.6953 Q539.6094,390.9531 539.6094,391.5625 L539.6094,393.0156 Q539.6094,393.625 539.375,393.8906 Q539.1406,394.1563 538.7656,394.1563 Q538.4219,394.1563 538.2188,393.9531 Q538.0156,393.7656 537.9063,393.25 Q537.8594,392.8906 537.6719,392.7031 Q537.3438,392.3281 536.7344,392.1094 Q536.125,391.8906 535.5,391.8906 Q534.7344,391.8906 534.1016,392.2188 Q533.4688,392.5469 532.9766,393.2969 Q532.4844,394.0469 532.4844,395.0781 L532.4844,396.1719 Q532.4844,397.4063 533.375,398.2266 Q534.2656,399.0469 535.8594,399.0469 Q536.7969,399.0469 537.4531,398.7969 Q537.8438,398.6406 538.2656,398.2031 Q538.5313,397.9375 538.6797,397.8594 Q538.8281,397.7813 539.0313,397.7813 Q539.3594,397.7813 539.6172,398.0391 Q539.875,398.2969 539.875,398.6406 Q539.875,398.9844 539.5313,399.3906 Q539.0313,399.9688 538.2344,400.2969 Q537.1563,400.75 535.8594,400.75 Q534.3438,400.75 533.1406,400.125 Q532.1563,399.625 531.4688,398.5547 Q530.7813,397.4844 530.7813,396.2031 L530.7813,395.0469 Q530.7813,393.7188 531.3984,392.5703 Q532.0156,391.4219 533.1094,390.8047 Q534.2031,390.1875 535.4375,390.1875 Q536.1719,390.1875 536.8203,390.3516 Q537.4688,390.5156 538.0156,390.875 Z " fill="#000000"/><text fill="#000000" font-family="sans-serif" font-size="14" lengthAdjust="spacing" textLength="66" x="555.75" y="400.7285">Connector</text><line style="stroke:#181818;stroke-width:0.5;" x1="481.5" x2="663.5" y1="411" y2="411"/><text fill="#000000" font-family="sans-serif" font-size="14" lengthAdjust="spacing" textLength="170" x="486.5" y="429.5332">+source_instance_id: UUID</text><text fill="#000000" font-family="sans-serif" font-size="14" lengthAdjust="spacing" textLength="123" x="486.5" y="447.1426">+source_pin: String</text><text fill="#000000" font-family="sans-serif" font-size="14" lengthAdjust="spacing" textLength="164" x="486.5" y="464.752">+target_instance_id: UUID</text><text fill="#000000" font-family="sans-serif" font-size="14" lengthAdjust="spacing" textLength="117" x="486.5" y="482.3613">+target_pin: String</text><text fill="#000000" font-family="sans-serif" font-size="14" lengthAdjust="spacing" textLength="94" x="486.5" y="499.9707">+directed: bool</text><line style="stroke:#181818;stroke-width:1.0;" x1="481.5" x2="663.5" y1="507.0469" y2="507.0469"/><text fill="#000000" font-family="sans-serif" font-size="14" lengthAdjust="spacing" textLength="172" x="486.5" y="525.5801">+validate_endpoints(): bool</text></g><!--MD5=[a716d834c9fc8c0bf0278f6285498a8c]
class Pin--><g id="elem_Pin"><rect codeLine="65" fill="#F1F1F1" height="100.8281" id="Pin" rx="2.5" ry="2.5" style="stroke:#181818;stroke-width:0.5;" width="158" x="836.5" y="789"/><ellipse cx="901.25" cy="805" fill="#ADD1B2" rx="11" ry="11" style="stroke:#181818;stroke-width:1.0;"/><path d="M904.0156,800.875 Q904.1719,800.6563 904.3594,800.5469 Q904.5469,800.4375 904.7656,800.4375 Q905.1406,800.4375 905.375,800.6953 Q905.6094,800.9531 905.6094,801.5625 L905.6094,803.0156 Q905.6094,803.625 905.375,803.8906 Q905.1406,804.1563 904.7656,804.1563 Q904.4219,804.1563 904.2188,803.9531 Q904.0156,803.7656 903.9063,803.25 Q903.8594,802.8906 903.6719,802.7031 Q903.3438,802.3281 902.7344,802.1094 Q902.125,801.8906 901.5,801.8906 Q900.7344,801.8906 900.1016,802.2188 Q899.4688,802.5469 898.9766,803.2969 Q898.4844,804.0469 898.4844,805.0781 L898.4844,806.1719 Q898.4844,807.4063 899.375,808.2266 Q900.2656,809.0469 901.8594,809.0469 Q902.7969,809.0469 903.4531,808.7969 Q903.8438,808.6406 904.2656,808.2031 Q904.5313,807.9375 904.6797,807.8594 Q904.8281,807.7813 905.0313,807.7813 Q905.3594,807.7813 905.6172,808.0391 Q905.875,808.2969 905.875,808.6406 Q905.875,808.9844 905.5313,809.3906 Q905.0313,809.9688 904.2344,810.2969 Q903.1563,810.75 901.8594,810.75 Q900.3438,810.75 899.1406,810.125 Q898.1563,809.625 897.4688,808.5547 Q896.7813,807.4844 896.7813,806.2031 L896.7813,805.0469 Q896.7813,803.7188 897.3984,802.5703 Q898.0156,801.4219 899.1094,800.8047 Q900.2031,800.1875 901.4375,800.1875 Q902.1719,800.1875 902.8203,800.3516 Q903.4688,800.5156 904.0156,800.875 Z " fill="#000000"/><text fill="#000000" font-family="sans-serif" font-size="14" lengthAdjust="spacing" textLength="20" x="921.75" y="810.7285">Pin</text><line style="stroke:#181818;stroke-width:0.5;" x1="837.5" x2="993.5" y1="821" y2="821"/><text fill="#000000" font-family="sans-serif" font-size="14" lengthAdjust="spacing" textLength="88" x="842.5" y="839.5332">+name: String</text><text fill="#000000" font-family="sans-serif" font-size="14" lengthAdjust="spacing" textLength="146" x="842.5" y="857.1426">+direction: PinDirection</text><text fill="#000000" font-family="sans-serif" font-size="14" lengthAdjust="spacing" textLength="116" x="842.5" y="874.752">+data_type: String</text><line style="stroke:#181818;stroke-width:0.5;" x1="837.5" x2="993.5" y1="881.8281" y2="881.8281"/></g><!--MD5=[c008e698830d501392e3abec76d38556]
class Point2D--><g id="elem_Point2D"><rect codeLine="71" fill="#F1F1F1" height="83.2188" id="Point2D" rx="2.5" ry="2.5" style="stroke:#181818;stroke-width:0.5;" width="82" x="350.5" y="121.5"/><ellipse cx="365.5" cy="137.5" fill="#ADD1B2" rx="11" ry="11" style="stroke:#181818;stroke-width:1.0;"/><path d="M368.2656,133.375 Q368.4219,133.1563 368.6094,133.0469 Q368.7969,132.9375 369.0156,132.9375 Q369.3906,132.9375 369.625,133.1953 Q369.8594,133.4531 369.8594,134.0625 L369.8594,135.5156 Q369.8594,136.125 369.625,136.3906 Q369.3906,136.6563 369.0156,136.6563 Q368.6719,136.6563 368.4688,136.4531 Q368.2656,136.2656 368.1563,135.75 Q368.1094,135.3906 367.9219,135.2031 Q367.5938,134.8281 366.9844,134.6094 Q366.375,134.3906 365.75,134.3906 Q364.9844,134.3906 364.3516,134.7188 Q363.7188,135.0469 363.2266,135.7969 Q362.7344,136.5469 362.7344,137.5781 L362.7344,138.6719 Q362.7344,139.9063 363.625,140.7266 Q364.5156,141.5469 366.1094,141.5469 Q367.0469,141.5469 367.7031,141.2969 Q368.0938,141.1406 368.5156,140.7031 Q368.7813,140.4375 368.9297,140.3594 Q369.0781,140.2813 369.2813,140.2813 Q369.6094,140.2813 369.8672,140.5391 Q370.125,140.7969 370.125,141.1406 Q370.125,141.4844 369.7813,141.8906 Q369.2813,142.4688 368.4844,142.7969 Q367.4063,143.25 366.1094,143.25 Q364.5938,143.25 363.3906,142.625 Q362.4063,142.125 361.7188,141.0547 Q361.0313,139.9844 361.0313,138.7031 L361.0313,137.5469 Q361.0313,136.2188 361.6484,135.0703 Q362.2656,133.9219 363.3594,133.3047 Q364.4531,132.6875 365.6875,132.6875 Q366.4219,132.6875 367.0703,132.8516 Q367.7188,133.0156 368.2656,133.375 Z " fill="#000000"/><text fill="#000000" font-family="sans-serif" font-size="14" lengthAdjust="spacing" textLength="50" x="379.5" y="143.2285">Point2D</text><line style="stroke:#181818;stroke-width:0.5;" x1="351.5" x2="431.5" y1="153.5" y2="153.5"/><text fill="#000000" font-family="sans-serif" font-size="14" lengthAdjust="spacing" textLength="49" x="356.5" y="172.0332">+x: float</text><text fill="#000000" font-family="sans-serif" font-size="14" lengthAdjust="spacing" textLength="50" x="356.5" y="189.6426">+y: float</text><line style="stroke:#181818;stroke-width:0.5;" x1="351.5" x2="431.5" y1="196.7188" y2="196.7188"/></g><!--MD5=[7d40ff14e0ee82cb89bde0867c9e1dc0]
class Size2D--><g id="elem_Size2D"><rect codeLine="76" fill="#F1F1F1" height="83.2188" id="Size2D" rx="2.5" ry="2.5" style="stroke:#181818;stroke-width:0.5;" width="94" x="467.5" y="121.5"/><ellipse cx="490.6" cy="137.5" fill="#ADD1B2" rx="11" ry="11" style="stroke:#181818;stroke-width:1.0;"/><path d="M493.3656,133.375 Q493.5219,133.1563 493.7094,133.0469 Q493.8969,132.9375 494.1156,132.9375 Q494.4906,132.9375 494.725,133.1953 Q494.9594,133.4531 494.9594,134.0625 L494.9594,135.5156 Q494.9594,136.125 494.725,136.3906 Q494.4906,136.6563 494.1156,136.6563 Q493.7719,136.6563 493.5688,136.4531 Q493.3656,136.2656 493.2563,135.75 Q493.2094,135.3906 493.0219,135.2031 Q492.6938,134.8281 492.0844,134.6094 Q491.475,134.3906 490.85,134.3906 Q490.0844,134.3906 489.4516,134.7188 Q488.8188,135.0469 488.3266,135.7969 Q487.8344,136.5469 487.8344,137.5781 L487.8344,138.6719 Q487.8344,139.9063 488.725,140.7266 Q489.6156,141.5469 491.2094,141.5469 Q492.1469,141.5469 492.8031,141.2969 Q493.1938,141.1406 493.6156,140.7031 Q493.8813,140.4375 494.0297,140.3594 Q494.1781,140.2813 494.3813,140.2813 Q494.7094,140.2813 494.9672,140.5391 Q495.225,140.7969 495.225,141.1406 Q495.225,141.4844 494.8813,141.8906 Q494.3813,142.4688 493.5844,142.7969 Q492.5063,143.25 491.2094,143.25 Q489.6938,143.25 488.4906,142.625 Q487.5063,142.125 486.8188,141.0547 Q486.1313,139.9844 486.1313,138.7031 L486.1313,137.5469 Q486.1313,136.2188 486.7484,135.0703 Q487.3656,133.9219 488.4594,133.3047 Q489.5531,132.6875 490.7875,132.6875 Q491.5219,132.6875 492.1703,132.8516 Q492.8188,133.0156 493.3656,133.375 Z " fill="#000000"/><text fill="#000000" font-family="sans-serif" font-size="14" lengthAdjust="spacing" textLength="44" x="506.4" y="143.2285">Size2D</text><line style="stroke:#181818;stroke-width:0.5;" x1="468.5" x2="560.5" y1="153.5" y2="153.5"/><text fill="#000000" font-family="sans-serif" font-size="14" lengthAdjust="spacing" textLength="75" x="473.5" y="172.0332">+width: float</text><text fill="#000000" font-family="sans-serif" font-size="14" lengthAdjust="spacing" textLength="82" x="473.5" y="189.6426">+height: float</text><line style="stroke:#181818;stroke-width:0.5;" x1="468.5" x2="560.5" y1="196.7188" y2="196.7188"/></g><!--MD5=[a4babdc5c266cd3f948aeee2fa746ce1]
class PinDirection--><g id="elem_PinDirection"><rect codeLine="81" fill="#F1F1F1" height="83.2188" id="PinDirection" rx="2.5" ry="2.5" style="stroke:#181818;stroke-width:0.5;" width="108" x="337.5" y="414.5"/><ellipse cx="352.5" cy="430.5" fill="#EB937F" rx="11" ry="11" style="stroke:#181818;stroke-width:1.0;"/><path d="M351.3594,431.2969 L351.3594,433.7969 L355.6875,433.7969 L355.6875,432.875 Q355.6875,432.2656 355.9297,432 Q356.1719,431.7344 356.5469,431.7344 Q356.9219,431.7344 357.1563,432 Q357.3906,432.2656 357.3906,432.875 L357.3906,435.5 L349.3906,435.5 Q348.7656,435.5 348.5078,435.2656 Q348.25,435.0313 348.25,434.6406 Q348.25,434.2656 348.5156,434.0313 Q348.7813,433.7969 349.3906,433.7969 L349.6563,433.7969 L349.6563,427.1406 L349.3906,427.1406 Q348.7656,427.1406 348.5078,426.9063 Q348.25,426.6719 348.25,426.2813 Q348.25,425.9063 348.5078,425.6719 Q348.7656,425.4375 349.3906,425.4375 L357.0156,425.4375 L357.0156,428.0313 Q357.0156,428.6406 356.7891,428.8984 Q356.5625,429.1563 356.1719,429.1563 Q355.7969,429.1563 355.5625,428.8984 Q355.3281,428.6406 355.3281,428.0313 L355.3281,427.1406 L351.3594,427.1406 L351.3594,429.5938 L352.8438,429.5938 Q352.8438,428.9375 352.9688,428.75 Q353.2344,428.3438 353.7031,428.3438 Q354.0781,428.3438 354.3125,428.6016 Q354.5469,428.8594 354.5469,429.4688 L354.5469,431.4375 Q354.5469,431.9844 354.4219,432.1719 Q354.1563,432.5625 353.7031,432.5625 Q353.2344,432.5625 352.9688,432.1563 Q352.8438,431.9688 352.8438,431.2969 L351.3594,431.2969 Z " fill="#000000"/><text fill="#000000" font-family="sans-serif" font-size="14" lengthAdjust="spacing" textLength="76" x="366.5" y="436.2285">PinDirection</text><line style="stroke:#181818;stroke-width:0.5;" x1="338.5" x2="444.5" y1="446.5" y2="446.5"/><text fill="#000000" font-family="sans-serif" font-size="14" lengthAdjust="spacing" textLength="12" x="343.5" y="465.0332">IN</text><text fill="#000000" font-family="sans-serif" font-size="14" lengthAdjust="spacing" textLength="29" x="343.5" y="482.6426">OUT</text><line style="stroke:#181818;stroke-width:0.5;" x1="338.5" x2="444.5" y1="489.7188" y2="489.7188"/></g><!--MD5=[163173c37952e62dc52d3e13a33bc0f3]
class BasicOperatorType--><g id="elem_BasicOperatorType"><rect codeLine="86" fill="#F1F1F1" height="118.4375" id="BasicOperatorType" rx="2.5" ry="2.5" style="stroke:#181818;stroke-width:0.5;" width="155" x="7" y="104"/><ellipse cx="22" cy="120" fill="#EB937F" rx="11" ry="11" style="stroke:#181818;stroke-width:1.0;"/><path d="M20.8594,120.7969 L20.8594,123.2969 L25.1875,123.2969 L25.1875,122.375 Q25.1875,121.7656 25.4297,121.5 Q25.6719,121.2344 26.0469,121.2344 Q26.4219,121.2344 26.6563,121.5 Q26.8906,121.7656 26.8906,122.375 L26.8906,125 L18.8906,125 Q18.2656,125 18.0078,124.7656 Q17.75,124.5313 17.75,124.1406 Q17.75,123.7656 18.0156,123.5313 Q18.2813,123.2969 18.8906,123.2969 L19.1563,123.2969 L19.1563,116.6406 L18.8906,116.6406 Q18.2656,116.6406 18.0078,116.4063 Q17.75,116.1719 17.75,115.7813 Q17.75,115.4063 18.0078,115.1719 Q18.2656,114.9375 18.8906,114.9375 L26.5156,114.9375 L26.5156,117.5313 Q26.5156,118.1406 26.2891,118.3984 Q26.0625,118.6563 25.6719,118.6563 Q25.2969,118.6563 25.0625,118.3984 Q24.8281,118.1406 24.8281,117.5313 L24.8281,116.6406 L20.8594,116.6406 L20.8594,119.0938 L22.3438,119.0938 Q22.3438,118.4375 22.4688,118.25 Q22.7344,117.8438 23.2031,117.8438 Q23.5781,117.8438 23.8125,118.1016 Q24.0469,118.3594 24.0469,118.9688 L24.0469,120.9375 Q24.0469,121.4844 23.9219,121.6719 Q23.6563,122.0625 23.2031,122.0625 Q22.7344,122.0625 22.4688,121.6563 Q22.3438,121.4688 22.3438,120.7969 L20.8594,120.7969 Z " fill="#000000"/><text fill="#000000" font-family="sans-serif" font-size="14" lengthAdjust="spacing" textLength="123" x="36" y="125.7285">BasicOperatorType</text><line style="stroke:#181818;stroke-width:0.5;" x1="8" x2="161" y1="136" y2="136"/><text fill="#000000" font-family="sans-serif" font-size="14" lengthAdjust="spacing" textLength="35" x="13" y="154.5332">PLUS</text><text fill="#000000" font-family="sans-serif" font-size="14" lengthAdjust="spacing" textLength="41" x="13" y="172.1426">MINUS</text><text fill="#000000" font-family="sans-serif" font-size="14" lengthAdjust="spacing" textLength="66" x="13" y="189.752">MULTIPLY</text><text fill="#000000" font-family="sans-serif" font-size="14" lengthAdjust="spacing" textLength="44" x="13" y="207.3613">DIVIDE</text><line style="stroke:#181818;stroke-width:0.5;" x1="8" x2="161" y1="214.4375" y2="214.4375"/></g><g id="elem_GMN14"><path d="M197.5,125.5 L197.5,159 L162.1,163 L197.5,167 L197.5,200.9063 A0,0 0 0 0 197.5,200.9063 L315.5,200.9063 A0,0 0 0 0 315.5,200.9063 L315.5,135.5 L305.5,125.5 L197.5,125.5 A0,0 0 0 0 197.5,125.5 " fill="#FEFFDD" style="stroke:#181818;stroke-width:0.5;"/><path d="M305.5,125.5 L305.5,135.5 L315.5,135.5 L305.5,125.5 " fill="#FEFFDD" style="stroke:#181818;stroke-width:0.5;"/><text fill="#000000" font-family="sans-serif" font-size="13" lengthAdjust="spacing" textLength="88" x="203.5" y="143.9951">PLUS      = "+"</text><text fill="#000000" font-family="sans-serif" font-size="13" lengthAdjust="spacing" textLength="87" x="203.5" y="160.3467">MINUS     = "-"</text><text fill="#000000" font-family="sans-serif" font-size="13" lengthAdjust="spacing" textLength="97" x="203.5" y="176.6982">MULTIPLY  = "*"</text><text fill="#000000" font-family="sans-serif" font-size="13" lengthAdjust="spacing" textLength="84" x="203.5" y="193.0498">DIVIDE    = "/"</text></g><!--MD5=[add1b7a2f239a8d43385bdd44bbd84ca]
class AttributeDict--><g id="elem_AttributeDict"><rect codeLine="100" fill="#F1F1F1" height="153.6563" id="AttributeDict" rx="2.5" ry="2.5" style="stroke:#181818;stroke-width:0.5;" width="403" x="972" y="379"/><ellipse cx="1130.75" cy="395" fill="#ADD1B2" rx="11" ry="11" style="stroke:#181818;stroke-width:1.0;"/><path d="M1133.5156,390.875 Q1133.6719,390.6563 1133.8594,390.5469 Q1134.0469,390.4375 1134.2656,390.4375 Q1134.6406,390.4375 1134.875,390.6953 Q1135.1094,390.9531 1135.1094,391.5625 L1135.1094,393.0156 Q1135.1094,393.625 1134.875,393.8906 Q1134.6406,394.1563 1134.2656,394.1563 Q1133.9219,394.1563 1133.7188,393.9531 Q1133.5156,393.7656 1133.4063,393.25 Q1133.3594,392.8906 1133.1719,392.7031 Q1132.8438,392.3281 1132.2344,392.1094 Q1131.625,391.8906 1131,391.8906 Q1130.2344,391.8906 1129.6016,392.2188 Q1128.9688,392.5469 1128.4766,393.2969 Q1127.9844,394.0469 1127.9844,395.0781 L1127.9844,396.1719 Q1127.9844,397.4063 1128.875,398.2266 Q1129.7656,399.0469 1131.3594,399.0469 Q1132.2969,399.0469 1132.9531,398.7969 Q1133.3438,398.6406 1133.7656,398.2031 Q1134.0313,397.9375 1134.1797,397.8594 Q1134.3281,397.7813 1134.5313,397.7813 Q1134.8594,397.7813 1135.1172,398.0391 Q1135.375,398.2969 1135.375,398.6406 Q1135.375,398.9844 1135.0313,399.3906 Q1134.5313,399.9688 1133.7344,400.2969 Q1132.6563,400.75 1131.3594,400.75 Q1129.8438,400.75 1128.6406,400.125 Q1127.6563,399.625 1126.9688,398.5547 Q1126.2813,397.4844 1126.2813,396.2031 L1126.2813,395.0469 Q1126.2813,393.7188 1126.8984,392.5703 Q1127.5156,391.4219 1128.6094,390.8047 Q1129.7031,390.1875 1130.9375,390.1875 Q1131.6719,390.1875 1132.3203,390.3516 Q1132.9688,390.5156 1133.5156,390.875 Z " fill="#000000"/><text fill="#000000" font-family="sans-serif" font-size="14" lengthAdjust="spacing" textLength="77" x="1151.25" y="400.7285">AttributeDict</text><line style="stroke:#181818;stroke-width:0.5;" x1="973" x2="1374" y1="411" y2="411"/><line style="stroke:#181818;stroke-width:0.5;" x1="973" x2="1374" y1="419" y2="419"/><text fill="#000000" font-family="sans-serif" font-size="14" lengthAdjust="spacing" textLength="137" x="978" y="437.5332">+get(key: String): Any</text><text fill="#000000" font-family="sans-serif" font-size="14" lengthAdjust="spacing" textLength="212" x="978" y="455.1426">+set(key: String, value: Any): void</text><text fill="#000000" font-family="sans-serif" font-size="14" lengthAdjust="spacing" textLength="391" x="978" y="472.752">+set_virtual(key: String, getter: Callable, setter: Callable): void</text><text fill="#000000" font-family="sans-serif" font-size="14" lengthAdjust="spacing" textLength="158" x="978" y="490.3613">+virtual(key: String): bool</text><text fill="#000000" font-family="sans-serif" font-size="14" lengthAdjust="spacing" textLength="173" x="978" y="507.9707">+exposed(key: String): bool</text><text fill="#000000" font-family="sans-serif" font-size="14" lengthAdjust="spacing" textLength="168" x="978" y="525.5801">+writable(key: String): bool</text></g><!--MD5=[ba92877aa04c855990cf0a8bd2763d11]
reverse link BaseObject to LocatableInstance--><g id="link_BaseObject_LocatableInstance"><path codeLine="109" d="M890.62,336.43 C879.6,354.55 868.93,372.09 859.33,387.87 " fill="none" id="BaseObject-backto-LocatableInstance" style="stroke:#181818;stroke-width:1.0;"/><polygon fill="none" points="884.67,332.75,901.04,319.3,896.63,340.02,884.67,332.75" style="stroke:#181818;stroke-width:1.0;"/></g><!--MD5=[f7e89b2893fa194704f3a365992b6366]
reverse link LocatableInstance to ElementaryInstance--><g id="link_LocatableInstance_ElementaryInstance"><path codeLine="110" d="M767.44,541.27 C753.19,564.79 738.16,589.59 725.55,610.4 " fill="none" id="LocatableInstance-backto-ElementaryInstance" style="stroke:#181818;stroke-width:1.0;"/><polygon fill="none" points="761.53,537.51,777.88,524.03,773.51,544.76,761.53,537.51" style="stroke:#181818;stroke-width:1.0;"/></g><!--MD5=[dad6181bad2b9157b0eae1fac9458cf4]
reverse link LocatableInstance to ComplexInstance--><g id="link_LocatableInstance_ComplexInstance"><path codeLine="111" d="M954.82,533.16 C998.73,557.37 1032.47,575.82 1063.72,592.85 " fill="none" id="LocatableInstance-backto-ComplexInstance" style="stroke:#181818;stroke-width:1.0;"/><polygon fill="none" points="951.26,539.19,937.14,523.39,958.03,526.93,951.26,539.19" style="stroke:#181818;stroke-width:1.0;"/></g><!--MD5=[466ac2fe4752e2b16f9424643fccd4f8]
reverse link ElementaryInstance to Variable--><g id="link_ElementaryInstance_Variable"><path codeLine="112" d="M628.98,725.47 C603.69,749.59 575.59,776.4 553.1,797.85 " fill="none" id="ElementaryInstance-backto-Variable" style="stroke:#181818;stroke-width:1.0;"/><polygon fill="none" points="624.17,720.38,643.47,711.63,633.84,730.51,624.17,720.38" style="stroke:#181818;stroke-width:1.0;"/></g><!--MD5=[9f9f46087e1ecb2c0d09bb0d99071bcf]
reverse link ElementaryInstance to BasicOperator--><g id="link_ElementaryInstance_BasicOperator"><path codeLine="113" d="M695.5,731.7 C695.5,757.53 695.5,785.59 695.5,806.46 " fill="none" id="ElementaryInstance-backto-BasicOperator" style="stroke:#181818;stroke-width:1.0;"/><polygon fill="none" points="688.5,731.63,695.5,711.63,702.5,731.63,688.5,731.63" style="stroke:#181818;stroke-width:1.0;"/></g><!--MD5=[3c8d0622612845ce8932f80744aa8dc9]
reverse link BaseObject to Connector--><g id="link_BaseObject_Connector"><path codeLine="114" d="M813.52,288.88 C770.54,318.41 724.89,349.8 682.5,379 C676.67,383.02 670.67,387.15 664.62,391.33 " fill="none" id="BaseObject-backto-Connector" style="stroke:#181818;stroke-width:1.0;"/><polygon fill="none" points="809.71,283,830.16,277.45,817.64,294.54,809.71,283" style="stroke:#181818;stroke-width:1.0;"/></g><!--MD5=[e42b38ed97f20a84db1b30476cfa5216]
reverse link ComplexInstance to BaseObject--><g id="link_ComplexInstance_BaseObject"><path codeLine="116" d="M1337.27,593.24 C1359.42,576.77 1379.22,556.84 1392.5,533 C1425.8,473.2 1427.53,437.8 1392.5,379 C1342.16,294.49 1245.76,241.17 1160.57,208.76 " fill="none" id="ComplexInstance-backto-BaseObject" style="stroke:#181818;stroke-width:1.0;"/><polygon fill="#181818" points="1326.59,600.81,1333.7983,600.6079,1336.3841,593.8764,1329.1758,594.0785,1326.59,600.81" style="stroke:#181818;stroke-width:1.0;"/></g><!--MD5=[18adb712475753ccc77f68b7db775d7d]
reverse link ElementaryInstance to Pin--><g id="link_ElementaryInstance_Pin"><path codeLine="117" d="M767.82,720.02 C795.59,742.3 827.02,767.51 853.72,788.93 " fill="none" id="ElementaryInstance-backto-Pin" style="stroke:#181818;stroke-width:1.0;"/><polygon fill="#181818" points="757.37,711.63,759.5446,718.5054,766.7276,719.1424,764.5529,712.267,757.37,711.63" style="stroke:#181818;stroke-width:1.0;"/></g><!--MD5=[e9737a78aaee3780c24a7e91e2584196]
reverse link BaseObject to AttributeDict--><g id="link_BaseObject_AttributeDict"><path codeLine="118" d="M1097.3,330.43 C1107.63,347.31 1117.71,363.8 1126.99,378.97 " fill="none" id="BaseObject-backto-AttributeDict" style="stroke:#181818;stroke-width:1.0;"/><polygon fill="#181818" points="1090.49,319.3,1090.2108,326.5057,1096.7549,329.5348,1097.034,322.3291,1090.49,319.3" style="stroke:#181818;stroke-width:1.0;"/></g><!--MD5=[2033038529025bd83e152189d9db1265]
link Connector to ElementaryInstance--><g id="link_Connector_ElementaryInstance"><path codeLine="119" d="M618.65,533.17 C633.29,557.32 649.16,583.52 662.66,605.8 " fill="none" id="Connector-to-ElementaryInstance" style="stroke:#181818;stroke-width:1.0;"/><polygon fill="#181818" points="665.33,610.2,664.0911,600.4294,662.7407,605.9227,657.2474,604.5722,665.33,610.2" style="stroke:#181818;stroke-width:1.0;"/></g><!--MD5=[bd7c028a106dc0e72c2964e2a3a83f43]
@startuml DataModel
skinparam classAttributeIconSize 0

abstract class BaseObject {
  +parent: ComplexInstance
  +_id: UUID
  +_name: String <<transient>>
  +_hash_name: String
  +attribute_dict: AttributeDict
  - -
  +id: UUID <<virtual, persistent, readonly>>
  +name: String <<virtual, writable>>
  +hash_name: String <<virtual, persistent, readonly>>
  +created_at: DateTime <<virtual, readonly>>
  +updated_at: DateTime <<virtual, readonly>>
  +path: String <<virtual, readonly>>
  +set_name(name: String): void
  +_refresh_hash_name(): void
  +get(key: String): Any
  +set(key: String, value: Any): void
}

abstract class LocatableInstance {
  +position: Point2D
  +size: Size2D
  - -
  +x: float <<virtual, writable>>
  +y: float <<virtual, writable>>
  +set_xy(pos: Point2DOrTuple): void
}

class ElementaryInstance {
  +type_key: String
  +in_pins: PinList
  +out_pins: PinList
}

class Variable {
  +value: Any
  +unit: String
}

class BasicOperator {
  +operation: BasicOperatorType
}

class ComplexInstance {
  +children: BaseObjectList
  +children_by_hash_name: HashNameMap
  - -
  +paste(obj: BaseObject): void
  +del(id: UUID): void
  +get_child(ref: String): BaseObject
}

class Connector {
  +source_instance_id: UUID
  +source_pin: String
  +target_instance_id: UUID
  +target_pin: String
  +directed: bool
  - -
  +validate_endpoints(): bool
}

class Pin {
  +name: String
  +direction: PinDirection
  +data_type: String
}

class Point2D {
  +x: float
  +y: float
}

class Size2D {
  +width: float
  +height: float
}

enum PinDirection {
  IN
  OUT
}

enum BasicOperatorType {
  PLUS
  MINUS
  MULTIPLY
  DIVIDE
}

note right of BasicOperatorType
  PLUS      = "+"
  MINUS     = "-"
  MULTIPLY  = "*"
  DIVIDE    = "/"
end note

class AttributeDict {
  +get(key: String): Any
  +set(key: String, value: Any): void
  +set_virtual(key: String, getter: Callable, setter: Callable): void
  +virtual(key: String): bool
  +exposed(key: String): bool
  +writable(key: String): bool
}

BaseObject <|- - LocatableInstance
LocatableInstance <|- - ElementaryInstance
LocatableInstance <|- - ComplexInstance
ElementaryInstance <|- - Variable
ElementaryInstance <|- - BasicOperator
BaseObject <|- - Connector

ComplexInstance *- - BaseObject
ElementaryInstance *- - Pin
BaseObject *- - AttributeDict
Connector - -> ElementaryInstance

@enduml

PlantUML version 1.2022.13(Sat Nov 19 14:22:17 CET 2022)
(GPL source distribution)
Java Runtime: Java(TM) SE Runtime Environment
JVM: Java HotSpot(TM) 64-Bit Server VM
Default Encoding: Cp1252
Language: de
Country: DE
--></g></svg>